<?xml version="1.0" encoding="UTF-8" standalone="no"?>
<!DOCTYPE svg PUBLIC "-//W3C//DTD SVG 1.1//EN" "http://www.w3.org/Graphics/SVG/1.1/DTD/svg11.dtd">
<svg width="100%" height="100%" viewBox="0 0 1024 1024" version="1.1" xmlns="http://www.w3.org/2000/svg" xmlns:xlink="http://www.w3.org/1999/xlink" xml:space="preserve" xmlns:serif="http://www.serif.com/" style="fill-rule:evenodd;clip-rule:evenodd;stroke-linejoin:round;stroke-miterlimit:2;">
    <g transform="matrix(1,0,0,1,93.6134,-8.23668)">
        <path d="M57.649,42.552C58.014,42.574 58.014,42.574 58.379,42.597C56.736,44.41 55.088,46.219 53.469,48.053C63.154,47.61 73.169,52.241 78.61,60.365C81.194,64.163 83.312,67.891 82.53,72.678C81.53,77.683 79.037,83.861 73.921,85.891C69.418,88.321 64.28,87.608 59.449,86.784C51.888,85.681 44.672,82.075 39.021,76.969C36.358,74.19 33.974,70.03 34.501,66.061C34.82,62.324 35.151,58.535 35.95,54.866C36.674,52.176 37.346,49.446 39.935,47.953C43.801,45.44 48.246,46.634 52.593,46.386C54.478,45.528 56.015,43.805 57.649,42.552" style="fill:rgb(255,255,254);fill-rule:nonzero;"/>
    </g>
    <path d="M77.423,0L78.922,0C79.25,0.218 79.25,0.218 79.577,0.436C83.726,3.339 85.561,7.916 89.46,11.174C87.47,12.946 85.446,14.67 83.283,16.231C80.305,11.619 77.679,7.155 72.805,4.25C74.334,2.826 75.855,1.379 77.423,0" style="fill:rgb(9,5,4);fill-rule:nonzero;"/>
    <path d="M109.082,0L113.12,0C113.078,1.284 113.032,2.569 112.982,3.853C114.314,3.355 115.651,2.873 116.998,2.418C114.435,5.936 111.713,8.102 107.878,10.115C107.987,6.335 106.257,3.003 109.082,0" style="fill:rgb(9,5,4);fill-rule:nonzero;"/>
    <path d="M141.868,2.842C141.045,8.864 137.107,13.109 132.312,16.465C133.864,13.515 135.417,10.635 136.537,7.482C137.538,4.964 139.593,3.98 141.868,2.842" style="fill:rgb(9,5,4);fill-rule:nonzero;"/>
    <path d="M56.186,7.392C58.557,7.495 60.313,10.711 61.585,12.42C64.167,16.687 67.549,20.25 70.597,24.159C71.895,26.145 73.06,28.225 74.267,30.268C72.478,31.969 70.732,33.703 69.02,35.482C66.834,30.944 63.852,27.011 60.735,23.089C57.322,19.102 55.777,14.774 51.114,12.01C52.683,10.414 54.281,8.583 56.186,7.392" style="fill:rgb(9,5,4);fill-rule:nonzero;"/>
    <path d="M162.087,6.65C160.558,8.976 158.699,10.824 156.518,12.532C153.326,15.006 150.808,18.092 147.453,20.335C150.256,14.605 156.286,9.236 162.087,6.65" style="fill:rgb(9,5,4);fill-rule:nonzero;"/>
    <path d="M129.993,21.975C135.228,24.196 140.718,27.161 144.425,31.58C142.982,33.334 141.518,35.07 140.089,36.836C134.359,31.331 127.362,27.495 119.677,25.498C112.051,23.546 103.891,21.73 95.999,21.779C88.223,21.665 81.107,23.756 73.785,26.059C74.07,25.039 74.07,25.039 74.356,24.019C77.795,20.33 82.266,19.386 86.94,18.075C100.767,14.385 116.65,17.59 129.993,21.975" style="fill:rgb(9,5,4);fill-rule:nonzero;"/>
    <path d="M95.999,21.779C103.891,21.73 112.051,23.546 119.677,25.498C127.362,27.495 134.359,31.331 140.089,36.836C141.149,37.948 142.161,39.12 143.172,40.278C139.128,42.057 135.999,44.629 133.033,47.858C124.452,46.005 115.393,45.741 106.659,46.376C101.287,46.709 95.954,48.077 90.927,49.963C88.257,50.882 86.625,53.197 84.855,55.252C90.048,54.53 94.85,52.541 100.061,51.952C104.034,51.49 108.047,51.333 112.044,51.356C118.095,51.345 123.886,52.838 129.958,52.623C128.087,57.107 126.958,61.602 128.653,66.368C130.045,70.173 132.034,75.382 135.997,77.13C140.103,79.308 145.518,79.284 150.059,79.322C156.032,79.36 161.384,76.254 166.203,73.042C168.637,74.715 170.866,76.589 172.595,79.003C172.09,78.434 171.569,77.878 171.032,77.335C169.66,79.043 166.163,81.183 167.319,83.695C168.931,89.057 171.248,94.018 171.998,99.654C173.598,98.103 175.494,96.524 176.652,94.605C176.972,91.676 175.923,88.473 175.045,85.706C175.6,86.295 175.6,86.295 176.155,86.884C179.354,89.923 181.313,93.532 183.068,97.523C181.029,97.954 178.821,98.158 176.884,98.951C174.949,100.16 173.461,102.279 171.993,103.993C173.495,105.441 175.028,106.844 176.606,108.207C177.006,108.732 177.006,108.732 177.406,109.256C175.655,111.061 173.975,112.929 172.353,114.85C173.128,115.447 173.905,116.042 174.684,116.634C173.592,116.672 172.499,116.7 171.407,116.734C170.365,120.111 169.784,123.236 167.166,125.815C165.279,127.632 163.583,129.346 163.113,132.041C160.899,141.666 157.067,151.205 151.427,159.341C149.044,162.975 145.567,164.886 141.897,166.967C139.162,168.455 137.248,170.625 134.869,172.567C133.947,172.543 133.947,172.543 133.025,172.519C133.738,171.216 134.459,169.916 135.155,168.603C128.652,171.443 121.842,173.406 115.424,176.428C109.869,179.107 104.581,180.43 101.137,186.038C108.22,183.711 114.543,179.783 121.73,177.663C121.796,179.318 121.856,180.973 121.919,182.628C121.507,182.303 121.096,181.977 120.69,181.645C113.818,186.002 112.994,192.717 111.176,200L98.926,200C96.294,196.885 94.116,193.691 90.932,191.067C88.018,188.701 84.813,186.675 81.661,184.644C82.54,184.364 83.422,184.095 84.307,183.837C89.172,184.139 94.018,185.064 98.883,185.194C101.018,184.184 102.7,182.015 104.316,180.332C96.491,179.015 88.597,178.66 80.792,177.132C76.408,176.379 72.063,175.251 67.651,174.697C64.819,174.338 62.031,176.004 59.291,175.778C55.186,174.772 51.35,171.522 48.137,168.883C39.99,162.54 33.136,154.507 25.657,147.329C23.656,145.64 24.321,143.364 24.144,141.014C23.565,132.702 29.817,124.679 33.698,117.686C36.931,112.463 38.434,106.472 36.514,100.468C34.87,96.009 32.186,91.878 29.012,88.354C27.375,89.804 25.781,91.303 24.142,92.752C26.875,96.676 29.208,100.797 31.464,105.007C30.051,106.487 28.599,107.93 27.155,109.38C28.063,110.368 28.989,111.337 29.934,112.29C30.279,112.638 30.279,112.638 30.625,112.986C26.493,111.892 22.235,111.519 18.081,110.577C18.058,109.82 18.058,109.82 18.036,109.064C19.978,106.425 24.059,104.079 24.739,100.794C25.451,93.138 21.217,87.075 23.897,79.32C24.819,78.971 25.745,78.633 26.675,78.306C26.286,72.019 26.896,66.258 24.246,60.313C27.164,58.903 29.465,56.794 31.864,54.667C30.316,59.993 29.358,65.466 29.107,71.009C28.874,75.541 31.729,80.062 35.072,82.915C41.734,88.39 49.762,92.091 58.452,92.588C63.93,93.363 68.792,92.504 73.403,89.391C79.425,85.128 84.475,79.036 87.039,72.078C88.392,68.466 88.551,64.483 86.923,60.93C83.592,53.645 77.613,47.646 70.114,44.705C66.289,43.045 62.463,42.944 58.379,42.597C58.014,42.574 58.014,42.574 57.649,42.552C55.04,40.436 52.158,40.775 49.018,41.005C44.41,41.429 40.081,44.705 36.958,47.933C33.737,51.68 28.953,54.981 24.016,55.751C25.728,50.941 27.128,45.841 29.294,41.239C29.168,42.19 29.168,42.19 29.042,43.141C32.098,40.73 34.203,37.569 36.868,34.812C40.557,32.024 46.271,31.287 50.68,30.42C53.591,30.121 55.063,27.146 57.142,25.264C55.741,25.274 54.34,25.298 52.94,25.337C55.587,24.705 58.145,23.912 60.735,23.089C63.852,27.011 66.834,30.944 69.02,35.482C70.732,33.703 72.478,31.969 74.267,30.268C73.06,28.225 71.895,26.145 70.597,24.159C71.85,24.108 73.103,24.061 74.356,24.019C74.07,25.039 74.07,25.039 73.785,26.059C81.107,23.756 88.223,21.665 95.999,21.779M162.07,109.178C160.378,112.388 159.065,116.889 155.997,118.984C152.164,121.819 148.296,124.856 144.104,127.119C136.017,131.544 128.003,137.215 119.437,140.454C113.102,142.963 105.833,145.61 98.954,145.483C94.508,145.505 90.71,142.219 87.544,139.446C83.124,135.562 79.798,131.343 77,126.17C84.124,123.547 91.493,122.79 99.012,122.313C102.675,122.216 104.184,119.606 106.38,117.174C97.911,117.042 88.918,117.718 81.029,121.05C76.717,122.94 74.135,126.283 71.313,129.875C75.163,137.865 81.359,144.403 88.769,149.196C92.209,151.589 97.138,150.852 101.028,150.21C111.309,148.083 121.251,143.617 130.219,138.22C137.054,134.172 144.34,130.511 150.577,125.585C155.023,122.333 159.52,119.3 162.562,114.572C164.528,111.389 166.157,107.991 167.946,104.705C159.396,101.009 150.566,99.217 142.139,94.87C136.996,92.061 132.191,89.152 128.009,84.984C124.579,81.431 121.998,76.738 119.665,72.422C118.101,73.881 116.288,75.373 115.103,77.161C115.567,80.204 117.677,83.119 119.385,85.616C124.051,92.395 131.239,96.787 138.336,100.637C145.843,104.225 154.171,106.597 162.07,109.178M65.683,114.771C66.84,115.341 68,115.906 69.163,116.465C71.903,114.057 74.126,111.766 75.265,108.201C73.864,108.378 71.957,107.999 70.731,108.758C68.713,110.313 67.167,112.72 65.683,114.771M77.666,161.26C81.226,163.026 84.626,164.932 87.925,167.152C91.455,165.345 95.362,163.319 99.292,162.623C105.043,161.81 111.091,162.659 116.831,162.383C118.934,161.681 120.609,158.848 122.089,157.233C116.746,156.899 111.329,156.677 105.983,157.041C100.992,157.345 96.596,159.521 92.161,161.629C89.545,159.91 86.347,157.29 83.156,157.085C81.069,157.83 79.353,159.863 77.666,161.26" style="fill:rgb(225,196,149);fill-rule:nonzero;"/>
    <path d="M52.94,25.337C54.34,25.298 55.741,25.274 57.142,25.264C55.063,27.146 53.591,30.121 50.68,30.42C46.271,31.287 40.557,32.024 36.868,34.812C34.203,37.569 32.098,40.73 29.042,43.141C29.168,42.19 29.168,42.19 29.294,41.239C31.078,37.449 34.436,34.281 37.576,31.584C42.028,27.848 47.318,26.312 52.94,25.337" style="fill:rgb(9,5,4);fill-rule:nonzero;"/>
    <path d="M151.486,39.497C149.992,41.173 148.503,43.341 146.533,44.456C143.079,45.101 139.107,44.832 136.277,47.272C134.224,49.989 133.272,53.633 133.21,57.003C133.099,60.832 135.065,64.847 136.861,68.144C138.603,71.691 143.277,73.413 147.005,73.551C150.974,73.753 155.268,74.228 159.183,73.407C162.31,72.375 165.922,70.554 168.584,68.606C171.295,66.569 171.135,63.487 170.67,60.461C169.895,55.259 165.582,51.777 160.866,50.112C156.522,48.395 152.435,48.837 147.888,48.677C149.501,46.983 151.165,45.064 153.117,43.769C159.471,42.736 165.982,43.914 171.168,47.842C175.189,51.065 177.246,56.758 175.894,61.766C174.426,66.577 170.124,70.179 166.203,73.042C161.384,76.254 156.032,79.36 150.059,79.322C145.518,79.284 140.103,79.308 135.997,77.13C132.034,75.382 130.045,70.173 128.653,66.368C126.958,61.602 128.087,57.107 129.958,52.623C123.886,52.838 118.095,51.345 112.044,51.356C108.047,51.333 104.034,51.49 100.061,51.952C94.85,52.541 90.048,54.53 84.855,55.252C86.625,53.197 88.257,50.882 90.927,49.963C95.954,48.077 101.287,46.709 106.659,46.376C115.393,45.741 124.452,46.005 133.033,47.858C135.999,44.629 139.128,42.057 143.172,40.278C145.907,39.313 148.636,39.456 151.486,39.497" style="fill:rgb(9,5,4);fill-rule:nonzero;"/>
    <path d="M49.018,41.005C52.158,40.775 55.04,40.436 57.649,42.552C56.015,43.805 54.478,45.528 52.593,46.386C48.246,46.634 43.801,45.44 39.935,47.953C37.346,49.446 36.674,52.176 35.95,54.866C35.151,58.535 34.82,62.324 34.501,66.061C33.974,70.03 36.358,74.19 39.021,76.969C44.672,82.075 51.888,85.681 59.449,86.784C64.28,87.608 69.418,88.321 73.921,85.891C79.037,83.861 81.53,77.683 82.53,72.678C83.312,67.891 81.194,64.163 78.61,60.365C73.169,52.241 63.154,47.61 53.469,48.053C55.088,46.219 56.736,44.41 58.379,42.597C62.463,42.944 66.289,43.045 70.114,44.705C77.613,47.646 83.592,53.645 86.923,60.93C88.551,64.483 88.392,68.466 87.039,72.078C84.475,79.036 79.425,85.128 73.403,89.391C68.792,92.504 63.93,93.363 58.452,92.588C49.762,92.091 41.734,88.39 35.072,82.915C31.729,80.062 28.874,75.541 29.107,71.009C29.358,65.466 30.316,59.993 31.864,54.667C29.465,56.794 27.164,58.903 24.246,60.313C21.019,61.011 17.748,61.41 14.455,61.631C15.826,60.023 17.238,58.263 18.93,56.982C20.415,56.151 22.365,56.094 24.016,55.751C28.953,54.981 33.737,51.68 36.958,47.933C40.081,44.705 44.41,41.429 49.018,41.005" style="fill:rgb(9,5,4);fill-rule:nonzero;"/>
    <path d="M57.649,42.552C58.014,42.574 58.014,42.574 58.379,42.597C56.736,44.41 55.088,46.219 53.469,48.053C63.154,47.61 73.169,52.241 78.61,60.365C81.194,64.163 83.312,67.891 82.53,72.678C81.53,77.683 79.037,83.861 73.921,85.891C69.418,88.321 64.28,87.608 59.449,86.784C51.888,85.681 44.672,82.075 39.021,76.969C36.358,74.19 33.974,70.03 34.501,66.061C34.82,62.324 35.151,58.535 35.95,54.866C36.674,52.176 37.346,49.446 39.935,47.953C43.801,45.44 48.246,46.634 52.593,46.386C54.478,45.528 56.015,43.805 57.649,42.552M65.055,60.524C62.244,62.231 59.838,64.298 56.715,65.458C57.533,63.861 58.415,62.3 59.288,60.732C57.291,59.811 55.79,58.47 53.48,59.359C50.958,60.723 48.755,63.06 47.048,65.341C46.121,66.62 46.541,68.21 47.606,69.279C50.686,70.528 54.612,70.709 57.804,69.834C61.353,68.001 64.888,64.804 65.055,60.524" style="fill:rgb(255,255,254);fill-rule:nonzero;"/>
    <path d="M177.703,43.1C180.056,44.235 182.393,45.382 184.83,46.333C186.279,45.197 187.74,44.085 189.284,43.081C187.86,46.434 185.152,50.154 181.751,51.642C178.507,51.647 175.291,49.615 172.607,47.989C174.265,46.333 175.929,44.631 177.703,43.1" style="fill:rgb(9,5,4);fill-rule:nonzero;"/>
    <path d="M153.863,49.724C153.482,55.231 148.964,61.118 143.071,60.931C143.41,59.52 143.46,57.587 144.444,56.46C146.871,53.592 150.636,51.597 153.863,49.724" style="fill:rgb(9,5,4);fill-rule:nonzero;"/>
    <path d="M53.48,59.359C55.79,58.47 57.291,59.811 59.288,60.732C58.415,62.3 57.533,63.861 56.715,65.458C59.838,64.298 62.244,62.231 65.055,60.524C64.888,64.804 61.353,68.001 57.804,69.834C54.612,70.709 50.686,70.528 47.606,69.279C46.541,68.21 46.121,66.62 47.048,65.341C48.755,63.06 50.958,60.723 53.48,59.359" style="fill:rgb(9,5,4);fill-rule:nonzero;"/>
    <path d="M119.665,72.422C121.998,76.738 124.579,81.431 128.009,84.984C132.191,89.152 136.996,92.061 142.139,94.87C150.566,99.217 159.396,101.009 167.946,104.705C166.157,107.991 164.528,111.389 162.562,114.572C159.52,119.3 155.023,122.333 150.577,125.585C144.34,130.511 137.054,134.172 130.219,138.22C121.251,143.617 111.309,148.083 101.028,150.21C97.138,150.852 92.209,151.589 88.769,149.196C81.359,144.403 75.163,137.865 71.313,129.875C74.135,126.283 76.717,122.94 81.029,121.05C88.918,117.718 97.911,117.042 106.38,117.174C104.184,119.606 102.675,122.216 99.012,122.313C91.493,122.79 84.124,123.547 77,126.17C79.798,131.343 83.124,135.562 87.544,139.446C90.71,142.219 94.508,145.505 98.954,145.483C105.833,145.61 113.102,142.963 119.437,140.454C128.003,137.215 136.017,131.544 144.104,127.119C148.296,124.856 152.164,121.819 155.997,118.984C159.065,116.889 160.378,112.388 162.07,109.178C154.171,106.597 145.843,104.225 138.336,100.637C131.239,96.787 124.051,92.395 119.385,85.616C117.677,83.119 115.567,80.204 115.103,77.161C116.288,75.373 118.101,73.881 119.665,72.422" style="fill:rgb(9,5,4);fill-rule:nonzero;"/>
    <path d="M171.032,77.335C171.569,77.878 172.09,78.434 172.595,79.003C173.457,81.221 174.126,83.508 175.045,85.706C175.923,88.473 176.972,91.676 176.652,94.605C175.494,96.524 173.598,98.103 171.998,99.654C171.248,94.018 168.931,89.057 167.319,83.695C166.163,81.183 169.66,79.043 171.032,77.335" style="fill:rgb(9,5,4);fill-rule:nonzero;"/>
    <path d="M23.897,79.32C21.217,87.075 25.451,93.138 24.739,100.794C24.059,104.079 19.978,106.425 18.036,109.064C18.058,109.82 18.058,109.82 18.081,110.577C22.235,111.519 26.493,111.892 30.625,112.986C29.544,114.664 28.26,116.59 26.556,117.688C21.77,118.118 16.685,116.428 12.031,115.424C12.53,110.081 16.061,107.778 19.665,104.431C19.348,98.393 16.587,91.93 17.854,86.039C18.219,83.062 21.521,80.8 23.897,79.32" style="fill:rgb(9,5,4);fill-rule:nonzero;"/>
    <path d="M180.953,82.174C181.075,82.071 181.075,82.071 181.196,81.967C183.917,84.835 186.426,87.647 187.652,91.5C187.991,92.771 188.857,94.368 187.769,95.504C185.782,98.151 183.182,100.411 180.8,102.7C182.676,103.78 184.554,104.858 186.418,105.959C184.669,107.62 182.942,109.302 181.246,111.017C179.668,110.131 178.105,109.223 176.606,108.207C175.028,106.844 173.495,105.441 171.993,103.993C173.461,102.279 174.949,100.16 176.884,98.951C178.821,98.158 181.029,97.954 183.068,97.523C181.313,93.532 179.354,89.923 176.155,86.884C177.76,85.323 179.302,83.686 180.953,82.174" style="fill:rgb(9,5,4);fill-rule:nonzero;"/>
    <path d="M29.012,88.354C32.186,91.878 34.87,96.009 36.514,100.468C38.434,106.472 36.931,112.463 33.698,117.686C29.817,124.679 23.565,132.702 24.144,141.014C24.321,143.364 23.656,145.64 25.657,147.329C33.136,154.507 39.99,162.54 48.137,168.883C51.35,171.522 55.186,174.772 59.291,175.778C62.031,176.004 64.819,174.338 67.651,174.697C72.063,175.251 76.408,176.379 80.792,177.132C88.597,178.66 96.491,179.015 104.316,180.332C102.7,182.015 101.018,184.184 98.883,185.194C94.018,185.064 89.172,184.139 84.307,183.837C77.42,183.056 70.677,181.145 63.834,180.113C61.226,179.456 59.399,181.568 57.098,182.43C42.438,176.849 30.727,161.83 19.423,151.457C18.534,148.492 18.884,145.043 19.055,141.985C19.3,137.01 22.165,132.705 24.347,128.342C27.392,122.259 31.545,117.951 32.246,110.91C31.474,111.367 30.703,111.826 29.934,112.29C28.989,111.337 28.063,110.368 27.155,109.38C28.599,107.93 30.051,106.487 31.464,105.007C29.208,100.797 26.875,96.676 24.142,92.752C25.781,91.303 27.375,89.804 29.012,88.354" style="fill:rgb(9,5,4);fill-rule:nonzero;"/>
    <path d="M75.265,108.201C74.126,111.766 71.903,114.057 69.163,116.465C68,115.906 66.84,115.341 65.683,114.771C67.167,112.72 68.713,110.313 70.731,108.758C71.957,107.999 73.864,108.378 75.265,108.201" style="fill:rgb(9,5,4);fill-rule:nonzero;"/>
    <path d="M177.406,109.256C177.965,110.064 178.506,110.885 179.026,111.72C177.571,113.351 176.111,114.978 174.684,116.634C173.905,116.042 173.128,115.447 172.353,114.85C173.975,112.929 175.655,111.061 177.406,109.256" style="fill:rgb(9,5,4);fill-rule:nonzero;"/>
    <path d="M167.166,125.815C168.148,125.434 168.148,125.434 169.13,125.053C167.648,132.852 165.214,140.417 161.438,147.417C156.506,157.683 149.018,166.562 138.824,171.881C137.557,172.557 136.272,172.622 134.869,172.567C137.248,170.625 139.162,168.455 141.897,166.967C145.567,164.886 149.044,162.975 151.427,159.341C157.067,151.205 160.899,141.666 163.113,132.041C163.583,129.346 165.279,127.632 167.166,125.815" style="fill:rgb(9,5,4);fill-rule:nonzero;"/>
    <path d="M83.156,157.085C86.347,157.29 89.545,159.91 92.161,161.629C96.596,159.521 100.992,157.345 105.983,157.041C111.329,156.677 116.746,156.899 122.089,157.233C120.609,158.848 118.934,161.681 116.831,162.383C111.091,162.659 105.043,161.81 99.292,162.623C95.362,163.319 91.455,165.345 87.925,167.152C84.626,164.932 81.226,163.026 77.666,161.26C79.353,159.863 81.069,157.83 83.156,157.085" style="fill:rgb(9,5,4);fill-rule:nonzero;"/>
    <path d="M135.155,168.603C134.459,169.916 133.738,171.216 133.025,172.519C129.41,174.578 125.724,176.449 121.73,177.663C114.543,179.783 108.22,183.711 101.137,186.038C104.581,180.43 109.869,179.107 115.424,176.428C121.842,173.406 128.652,171.443 135.155,168.603" style="fill:rgb(9,5,4);fill-rule:nonzero;"/>
    <path d="M120.69,181.645C118.868,187.796 116.401,193.426 116.406,200L111.176,200C112.994,192.717 113.818,186.002 120.69,181.645" style="fill:rgb(9,5,4);fill-rule:nonzero;"/>
    <path d="M75.993,182.858C77.939,183.298 79.814,183.89 81.661,184.644C84.813,186.675 88.018,188.701 90.932,191.067C94.116,193.691 96.294,196.885 98.926,200L90.072,200C84.832,194.712 78.205,189.903 70.937,187.954C72.608,186.242 74.267,184.514 75.993,182.858" style="fill:rgb(9,5,4);fill-rule:nonzero;"/>
    <path d="M158.597,189.734C160.244,189.341 162.129,189.754 163.8,189.86C162.973,191.36 162.108,192.828 161.208,194.285C162.228,196.112 162.962,198.025 163.639,200L158.305,200C157.096,198.434 155.903,196.855 154.712,195.275C152.682,195.601 150.639,195.789 148.591,195.943C148.326,197.298 148.048,198.651 147.757,200L140.264,200C140.715,196.119 141.176,194.922 144.281,192.53C144.628,193.454 144.968,194.381 145.302,195.31C149.127,191.454 153.689,191.289 158.597,189.734" style="fill:rgb(9,5,4);fill-rule:nonzero;"/>
    <path d="M132.639,196.352C133.753,195.568 135.489,195.74 136.801,195.468C137.827,196.979 138.842,198.499 139.883,200L130.362,200C131.11,198.787 131.785,197.49 132.639,196.352" style="fill:rgb(9,5,4);fill-rule:nonzero;"/>
    <path d="M154.712,195.275C155.903,196.855 157.096,198.434 158.305,200L147.757,200C148.048,198.651 148.326,197.298 148.591,195.943C150.639,195.789 152.682,195.601 154.712,195.275" style="fill:rgb(255,255,254);fill-rule:nonzero;"/>
</svg>
